<?xml version="1.0" encoding="iso-8859-1"?>
<!-- Generator: Adobe Illustrator 19.0.0, SVG Export Plug-In . SVG Version: 6.00 Build 0)  -->
<svg version="1.1" id="Layer_1" xmlns="http://www.w3.org/2000/svg" xmlns:xlink="http://www.w3.org/1999/xlink" x="0px" y="0px"
	 viewBox="0 0 512 512" style="enable-background:new 0 0 512 512;" xml:space="preserve">
<g>
	<g>
		<rect x="108.117" y="93.204" width="33.553" height="325.592"/>
	</g>
</g>
<g>
	<g>
		<rect x="162.796" y="93.204" width="41.01" height="325.592"/>
	</g>
</g>
<g>
	<g>
		<rect x="349.204" y="93.204" width="54.68" height="325.592"/>
	</g>
</g>
<g>
	<g>
		<rect x="287.068" y="93.204" width="41.01" height="325.592"/>
	</g>
</g>
<g>
	<g>
		<rect x="224.932" y="93.204" width="41.01" height="325.592"/>
	</g>
</g>
<g>
	<g>
		<path d="M480.892,80.777H425.01v350.447h55.883c17.531,0,31.108-14.058,31.108-31.589V112.365
			C512,94.834,498.423,80.777,480.892,80.777z"/>
	</g>
</g>
<g>
	<g>
		<path d="M35.328,80.777C15.469,80.777,0,96.727,0,116.586v278.83c0,19.857,15.469,35.808,35.328,35.808H86.99V80.777H35.328z
			 M43.26,388.048c-11.16,0-20.207-9.047-20.207-20.207s9.047-20.207,20.207-20.207s20.207,9.047,20.207,20.207
			S54.42,388.048,43.26,388.048z M43.262,313.487c-11.16,0-20.207-9.047-20.207-20.207c-0.001-11.16,9.046-20.207,20.207-20.207
			c11.16,0,20.207,9.047,20.207,20.207S54.421,313.487,43.262,313.487z M43.262,238.926c-11.16,0-20.207-9.047-20.207-20.207
			s9.046-20.207,20.207-20.207c11.16,0,20.207,9.047,20.207,20.207S54.421,238.926,43.262,238.926z M43.262,164.366
			c-11.16,0-20.207-9.047-20.207-20.207s9.046-20.207,20.207-20.207c11.16,0,20.207,9.047,20.207,20.207
			S54.421,164.366,43.262,164.366z"/>
	</g>
</g>
<g>
</g>
<g>
</g>
<g>
</g>
<g>
</g>
<g>
</g>
<g>
</g>
<g>
</g>
<g>
</g>
<g>
</g>
<g>
</g>
<g>
</g>
<g>
</g>
<g>
</g>
<g>
</g>
<g>
</g>
</svg>
